<svg width="193" height="28" viewBox="0 0 193 28" fill="none" xmlns="http://www.w3.org/2000/svg"><g clip-path="url(#clip0_252_40006)"><path d="M24.6886 16.1369C27.1192 16.1369 30.6406 15.6333 30.6406 12.7419C30.6406 12.5164 30.6347 12.2967 30.5803 12.0769L29.1317 5.78472C28.7953 4.40222 28.5036 3.77222 26.0711 2.55694C24.1869 1.5925 20.0783 0 18.8631 0C17.7314 0 17.3969 1.46611 16.0553 1.46611C14.7136 1.46611 13.7919 0.377222 12.5767 0.377222C11.3614 0.377222 10.6478 1.17444 10.0625 2.80778C10.0625 2.80778 8.42722 7.41806 8.21722 8.08889C8.17445 8.21528 8.17445 8.35528 8.17445 8.46611C8.17445 10.2589 15.2308 16.1369 24.6906 16.1369M31.0197 13.9144C31.3561 15.5069 31.3561 15.6742 31.3561 15.8842C31.3561 18.6083 28.2956 20.1172 24.2725 20.1172C15.1764 20.1172 7.21195 14.7933 7.21195 11.2739C7.21195 10.7294 7.33833 10.2258 7.50556 9.84861C4.235 10.0158 0.0019455 10.6031 0.0019455 14.3344C0.0019455 20.4536 14.5056 28 25.9894 28C34.7919 28 37.0125 24.0178 37.0125 20.8736C37.0125 18.4003 34.8756 15.5925 31.0178 13.9144" fill="#EE0000"></path><path d="M31.0178 13.9164C31.3542 15.5089 31.3542 15.6761 31.3542 15.8861C31.3542 18.6103 28.2936 20.1191 24.2706 20.1191C15.1744 20.1191 7.21 14.7953 7.21 11.2758C7.21 10.7314 7.33639 10.2278 7.50361 9.85053L8.21722 8.08887C8.17444 8.21526 8.17444 8.35526 8.17444 8.46609C8.17444 10.2589 15.2308 16.1369 24.6906 16.1369C27.1211 16.1369 30.6425 15.6333 30.6425 12.7419C30.6425 12.5164 30.6367 12.2966 30.5822 12.0769L31.0197 13.9164H31.0178Z" fill="black"></path><path d="M112.63 17.9471C112.63 20.2571 114.02 21.3829 116.556 21.3829C117.17 21.3829 118.232 21.2391 118.868 21.0563V18.3768C118.316 18.5402 117.907 18.6024 117.374 18.6024C116.332 18.6024 115.943 18.2757 115.943 17.2938V13.1832H118.969V10.4221H115.943V6.926L112.63 7.64156V10.4221H110.442V13.1832H112.63V17.9471ZM102.336 18.0093C102.336 17.2938 103.052 16.9457 104.135 16.9457C104.85 16.9457 105.506 17.0488 106.099 17.1907V18.581C105.484 18.9291 104.769 19.0924 104.034 19.0924C102.97 19.0924 102.336 18.6841 102.336 18.0093ZM103.347 21.4238C104.512 21.4238 105.453 21.1788 106.332 20.5857V21.241H109.604V14.3091C109.604 11.6704 107.825 10.2199 104.86 10.2199C103.203 10.2199 101.568 10.6088 99.8083 11.406L100.994 13.8404C102.262 13.3096 103.326 12.981 104.267 12.981C105.638 12.981 106.332 13.5118 106.332 14.5968V15.1277C105.554 14.9235 104.737 14.8204 103.878 14.8204C101.097 14.8204 99.4194 15.9852 99.4194 18.0716C99.4194 19.9732 100.932 21.4257 103.345 21.4257M85.3708 21.241H88.8883V15.6371H94.778V21.241H98.2956V6.926H94.778V12.4268H88.8883V6.926H85.3708V21.241ZM71.9678 15.8218C71.9678 14.2682 73.1947 13.0821 74.8106 13.0821C75.7108 13.0821 76.5275 13.3893 77.1011 13.9202V17.7041C76.5081 18.2757 75.7303 18.5635 74.8106 18.5635C73.2161 18.5635 71.9678 17.3774 71.9678 15.8238M77.1419 21.2429H80.4144V6.21045L77.1011 6.926V10.9957C76.2825 10.5252 75.3433 10.2802 74.34 10.2802C71.19 10.2802 68.7167 12.7146 68.7167 15.8218C68.7167 18.9291 71.1511 21.3849 74.2389 21.3849C75.3025 21.3849 76.3039 21.0582 77.1419 20.4438V21.241V21.2429ZM62.1328 12.9402C63.175 12.9402 64.0558 13.6149 64.4019 14.6571H59.8831C60.2097 13.5741 61.0283 12.9402 62.1328 12.9402ZM56.5503 15.8432C56.5503 18.9932 59.1267 21.4471 62.44 21.4471C64.26 21.4471 65.59 20.9571 66.9589 19.8118L64.7714 17.8693C64.26 18.4002 63.5036 18.6879 62.6033 18.6879C61.3764 18.6879 60.375 18.0132 59.9453 16.971H67.655V16.1524C67.655 12.7166 65.345 10.2432 62.195 10.2432C59.045 10.2432 56.5503 12.6971 56.5503 15.8471M50.8453 9.93795C52.01 9.93795 52.6653 10.6749 52.6653 11.5538C52.6653 12.4327 52.01 13.1696 50.8453 13.1696H47.3686V9.93795H50.8453ZM43.8511 21.2468H47.3686V16.0318H50.0481L52.7469 21.2468H56.6728L53.5228 15.5204C55.2203 14.7835 56.2217 13.2513 56.2217 11.4916C56.2217 8.91517 54.1975 6.93184 51.17 6.93184H43.8492V21.2468H43.8511Z" fill="black"></path></g><path d="M131.495 21.731C130.431 21.731 129.437 21.535 128.513 21.143C127.603 20.751 126.798 20.212 126.098 19.526C125.412 18.826 124.873 18.021 124.481 17.111C124.089 16.187 123.893 15.2 123.893 14.15C123.893 13.1 124.082 12.12 124.46 11.21C124.852 10.286 125.391 9.481 126.077 8.795C126.777 8.095 127.582 7.549 128.492 7.157C129.416 6.765 130.41 6.569 131.474 6.569C132.608 6.569 133.679 6.779 134.687 7.199C135.695 7.619 136.556 8.214 137.27 8.984L136.178 10.097C135.618 9.453 134.918 8.956 134.078 8.606C133.252 8.242 132.384 8.06 131.474 8.06C130.634 8.06 129.85 8.214 129.122 8.522C128.408 8.83 127.778 9.264 127.232 9.824C126.7 10.37 126.28 11.014 125.972 11.756C125.678 12.484 125.531 13.282 125.531 14.15C125.531 15.004 125.678 15.802 125.972 16.544C126.28 17.286 126.7 17.937 127.232 18.497C127.778 19.043 128.408 19.47 129.122 19.778C129.85 20.086 130.634 20.24 131.474 20.24C132.468 20.24 133.364 20.023 134.162 19.589C134.974 19.155 135.625 18.56 136.115 17.804C136.619 17.048 136.913 16.194 136.997 15.242H131.726V13.814H138.635V14.465C138.635 15.487 138.453 16.439 138.089 17.321C137.725 18.203 137.221 18.973 136.577 19.631C135.933 20.289 135.177 20.807 134.309 21.185C133.441 21.549 132.503 21.731 131.495 21.731ZM145.777 21.689C144.769 21.689 143.852 21.451 143.026 20.975C142.214 20.485 141.563 19.827 141.073 19.001C140.597 18.175 140.359 17.251 140.359 16.229C140.359 15.221 140.59 14.311 141.052 13.499C141.514 12.673 142.137 12.022 142.921 11.546C143.705 11.056 144.58 10.811 145.546 10.811C146.484 10.811 147.324 11.056 148.066 11.546C148.822 12.022 149.417 12.673 149.851 13.499C150.299 14.311 150.523 15.221 150.523 16.229V16.712H141.892C141.976 17.398 142.193 18.014 142.543 18.56C142.907 19.106 143.376 19.54 143.95 19.862C144.524 20.17 145.154 20.324 145.84 20.324C146.386 20.324 146.918 20.24 147.436 20.072C147.954 19.904 148.388 19.666 148.738 19.358L149.704 20.387C149.116 20.821 148.5 21.15 147.856 21.374C147.226 21.584 146.533 21.689 145.777 21.689ZM141.934 15.473H148.969C148.885 14.843 148.675 14.283 148.339 13.793C148.017 13.289 147.611 12.897 147.121 12.617C146.631 12.323 146.092 12.176 145.504 12.176C144.902 12.176 144.349 12.316 143.845 12.596C143.341 12.876 142.921 13.268 142.585 13.772C142.249 14.262 142.032 14.829 141.934 15.473ZM152.695 21.5V10.979H154.249V12.218C155.075 11.252 156.181 10.769 157.567 10.769C158.365 10.769 159.065 10.944 159.667 11.294C160.283 11.63 160.759 12.106 161.095 12.722C161.445 13.324 161.62 14.031 161.62 14.843V21.5H160.087V15.158C160.087 14.22 159.821 13.485 159.289 12.953C158.771 12.407 158.057 12.134 157.147 12.134C156.517 12.134 155.957 12.274 155.467 12.554C154.977 12.834 154.571 13.233 154.249 13.751V21.5H152.695ZM164.22 21.5V10.979H165.774V21.5H164.22ZM164.997 8.963C164.717 8.963 164.472 8.858 164.262 8.648C164.052 8.438 163.947 8.193 163.947 7.913C163.947 7.619 164.052 7.374 164.262 7.178C164.472 6.968 164.717 6.863 164.997 6.863C165.291 6.863 165.536 6.968 165.732 7.178C165.942 7.374 166.047 7.619 166.047 7.913C166.047 8.193 165.942 8.438 165.732 8.648C165.536 8.858 165.291 8.963 164.997 8.963ZM173.36 21.689C172.352 21.689 171.435 21.451 170.609 20.975C169.797 20.485 169.146 19.827 168.656 19.001C168.18 18.175 167.942 17.251 167.942 16.229C167.942 15.221 168.173 14.311 168.635 13.499C169.097 12.673 169.72 12.022 170.504 11.546C171.288 11.056 172.163 10.811 173.129 10.811C174.067 10.811 174.907 11.056 175.649 11.546C176.405 12.022 177 12.673 177.434 13.499C177.882 14.311 178.106 15.221 178.106 16.229V16.712H169.475C169.559 17.398 169.776 18.014 170.126 18.56C170.49 19.106 170.959 19.54 171.533 19.862C172.107 20.17 172.737 20.324 173.423 20.324C173.969 20.324 174.501 20.24 175.019 20.072C175.537 19.904 175.971 19.666 176.321 19.358L177.287 20.387C176.699 20.821 176.083 21.15 175.439 21.374C174.809 21.584 174.116 21.689 173.36 21.689ZM169.517 15.473H176.552C176.468 14.843 176.258 14.283 175.922 13.793C175.6 13.289 175.194 12.897 174.704 12.617C174.214 12.323 173.675 12.176 173.087 12.176C172.485 12.176 171.932 12.316 171.428 12.596C170.924 12.876 170.504 13.268 170.168 13.772C169.832 14.262 169.615 14.829 169.517 15.473ZM185.123 12.659V6.8H186.278L188.126 10.601L189.974 6.8H191.129V12.659H190.247L190.289 7.934L188.126 12.26L185.984 7.997L186.005 12.659H185.123ZM181.091 12.659V7.598H179.012V6.8H184.073V7.598H181.994V12.659H181.091Z" fill="black"></path><defs><clipPath id="clip0_252_40006"><rect width="118.969" height="28" fill="white"></rect></clipPath></defs></svg>